# xmcd
# 
# Track frame offsets:
#     150
#     17880
#     35690
#     59302
#     71947
#     101392
#     122140
#     143867
#     166407
#     190957
#     211995
# 
# Disc length: 3172
# 
# Revision: 16
# Processed by: cddbd v1.5.2PL0 Copyright (c) Steve Scherf et al.
# Submitted via: fre:ac v1.1beta1pre5
# 
DISCID=a40c620b
DTITLE=Pantera - Vulgar Display of Power
DYEAR=1992
DGENRE=Thrash Metal
TTITLE0=Mouth for War
TTITLE1=A New Level
TTITLE2=Walk
TTITLE3=Fucking Hostile
TTITLE4=This Love
TTITLE5=Rise
TTITLE6=No Good (Attack the Radical)
TTITLE7=Live in a Hole
TTITLE8=Regular People
TTITLE9=By Demons Be Driven
TTITLE10=Hollow
EXTD=
EXTT0=
EXTT1=
EXTT2=
EXTT3=
EXTT4=
EXTT5=
EXTT6=
EXTT7=
EXTT8=
EXTT9=
EXTT10=
PLAYORDER=
